<mxfile host="app.diagrams.net" modified="2023-10-02T18:03:54.602Z" agent="Mozilla/5.0 (Windows NT 10.0; Win64; x64) AppleWebKit/537.36 (KHTML, like Gecko) Chrome/117.0.0.0 Safari/537.36" etag="s1IwUJvzQ6kHttRCYPrj" version="22.0.1" type="device">
  <diagram name="1 oldal" id="vaEctQKsDcYDpFiwRtyL">
    <mxGraphModel dx="1384" dy="1580" grid="1" gridSize="10" guides="1" tooltips="1" connect="1" arrows="1" fold="1" page="0" pageScale="1" pageWidth="827" pageHeight="1169" math="0" shadow="0">
      <root>
        <mxCell id="0" />
        <mxCell id="1" parent="0" />
        <mxCell id="rRgYv9nHdEKHLz1z8RmW-1" value="óra" style="whiteSpace=wrap;html=1;align=center;" vertex="1" parent="1">
          <mxGeometry x="-320" y="-600" width="100" height="40" as="geometry" />
        </mxCell>
        <mxCell id="rRgYv9nHdEKHLz1z8RmW-2" value="tárgy" style="ellipse;whiteSpace=wrap;html=1;align=center;" vertex="1" parent="1">
          <mxGeometry x="-350" y="-530" width="100" height="40" as="geometry" />
        </mxCell>
        <mxCell id="rRgYv9nHdEKHLz1z8RmW-3" value="időpont" style="ellipse;whiteSpace=wrap;html=1;align=center;" vertex="1" parent="1">
          <mxGeometry x="-460" y="-530" width="100" height="40" as="geometry" />
        </mxCell>
        <mxCell id="rRgYv9nHdEKHLz1z8RmW-4" value="helyszín" style="ellipse;whiteSpace=wrap;html=1;align=center;" vertex="1" parent="1">
          <mxGeometry x="-130" y="-530" width="100" height="40" as="geometry" />
        </mxCell>
        <mxCell id="rRgYv9nHdEKHLz1z8RmW-5" value="oktató" style="ellipse;whiteSpace=wrap;html=1;align=center;" vertex="1" parent="1">
          <mxGeometry x="-240" y="-530" width="100" height="40" as="geometry" />
        </mxCell>
        <mxCell id="rRgYv9nHdEKHLz1z8RmW-6" value="szak" style="ellipse;whiteSpace=wrap;html=1;align=center;" vertex="1" parent="1">
          <mxGeometry x="-20" y="-530" width="100" height="40" as="geometry" />
        </mxCell>
        <mxCell id="rRgYv9nHdEKHLz1z8RmW-7" value="nap" style="ellipse;whiteSpace=wrap;html=1;align=center;" vertex="1" parent="1">
          <mxGeometry x="-350" y="-430" width="100" height="40" as="geometry" />
        </mxCell>
        <mxCell id="rRgYv9nHdEKHLz1z8RmW-8" value="tól" style="ellipse;whiteSpace=wrap;html=1;align=center;" vertex="1" parent="1">
          <mxGeometry x="-570" y="-430" width="100" height="40" as="geometry" />
        </mxCell>
        <mxCell id="rRgYv9nHdEKHLz1z8RmW-9" value="ig" style="ellipse;whiteSpace=wrap;html=1;align=center;" vertex="1" parent="1">
          <mxGeometry x="-460" y="-430" width="100" height="40" as="geometry" />
        </mxCell>
        <mxCell id="rRgYv9nHdEKHLz1z8RmW-10" value="" style="endArrow=none;html=1;rounded=0;entryX=0.5;entryY=1;entryDx=0;entryDy=0;exitX=0.5;exitY=0;exitDx=0;exitDy=0;" edge="1" parent="1" source="rRgYv9nHdEKHLz1z8RmW-8" target="rRgYv9nHdEKHLz1z8RmW-3">
          <mxGeometry width="50" height="50" relative="1" as="geometry">
            <mxPoint x="-300" y="-360" as="sourcePoint" />
            <mxPoint x="-250" y="-410" as="targetPoint" />
          </mxGeometry>
        </mxCell>
        <mxCell id="rRgYv9nHdEKHLz1z8RmW-11" value="" style="endArrow=none;html=1;rounded=0;exitX=0.5;exitY=0;exitDx=0;exitDy=0;" edge="1" parent="1" source="rRgYv9nHdEKHLz1z8RmW-9">
          <mxGeometry width="50" height="50" relative="1" as="geometry">
            <mxPoint x="-300" y="-360" as="sourcePoint" />
            <mxPoint x="-410" y="-490" as="targetPoint" />
          </mxGeometry>
        </mxCell>
        <mxCell id="rRgYv9nHdEKHLz1z8RmW-12" value="" style="endArrow=none;html=1;rounded=0;exitX=0.5;exitY=0;exitDx=0;exitDy=0;entryX=0.5;entryY=1;entryDx=0;entryDy=0;" edge="1" parent="1" source="rRgYv9nHdEKHLz1z8RmW-7" target="rRgYv9nHdEKHLz1z8RmW-3">
          <mxGeometry width="50" height="50" relative="1" as="geometry">
            <mxPoint x="-300" y="-360" as="sourcePoint" />
            <mxPoint x="-250" y="-410" as="targetPoint" />
          </mxGeometry>
        </mxCell>
        <mxCell id="rRgYv9nHdEKHLz1z8RmW-13" value="" style="endArrow=none;html=1;rounded=0;exitX=0.5;exitY=0;exitDx=0;exitDy=0;entryX=0.5;entryY=1;entryDx=0;entryDy=0;" edge="1" parent="1" source="rRgYv9nHdEKHLz1z8RmW-3" target="rRgYv9nHdEKHLz1z8RmW-1">
          <mxGeometry width="50" height="50" relative="1" as="geometry">
            <mxPoint x="-170" y="-460" as="sourcePoint" />
            <mxPoint x="-120" y="-510" as="targetPoint" />
          </mxGeometry>
        </mxCell>
        <mxCell id="rRgYv9nHdEKHLz1z8RmW-14" value="" style="endArrow=none;html=1;rounded=0;exitX=0.5;exitY=0;exitDx=0;exitDy=0;entryX=0.5;entryY=1;entryDx=0;entryDy=0;" edge="1" parent="1" source="rRgYv9nHdEKHLz1z8RmW-2" target="rRgYv9nHdEKHLz1z8RmW-1">
          <mxGeometry width="50" height="50" relative="1" as="geometry">
            <mxPoint x="-170" y="-460" as="sourcePoint" />
            <mxPoint x="-120" y="-510" as="targetPoint" />
          </mxGeometry>
        </mxCell>
        <mxCell id="rRgYv9nHdEKHLz1z8RmW-15" value="" style="endArrow=none;html=1;rounded=0;exitX=0.5;exitY=0;exitDx=0;exitDy=0;entryX=0.5;entryY=1;entryDx=0;entryDy=0;" edge="1" parent="1" source="rRgYv9nHdEKHLz1z8RmW-5" target="rRgYv9nHdEKHLz1z8RmW-1">
          <mxGeometry width="50" height="50" relative="1" as="geometry">
            <mxPoint x="-170" y="-460" as="sourcePoint" />
            <mxPoint x="-120" y="-510" as="targetPoint" />
          </mxGeometry>
        </mxCell>
        <mxCell id="rRgYv9nHdEKHLz1z8RmW-16" value="" style="endArrow=none;html=1;rounded=0;exitX=0.5;exitY=0;exitDx=0;exitDy=0;" edge="1" parent="1" source="rRgYv9nHdEKHLz1z8RmW-4">
          <mxGeometry width="50" height="50" relative="1" as="geometry">
            <mxPoint x="-170" y="-460" as="sourcePoint" />
            <mxPoint x="-270" y="-560" as="targetPoint" />
          </mxGeometry>
        </mxCell>
        <mxCell id="rRgYv9nHdEKHLz1z8RmW-18" value="" style="endArrow=none;html=1;rounded=0;exitX=0.5;exitY=0;exitDx=0;exitDy=0;entryX=0.5;entryY=1;entryDx=0;entryDy=0;" edge="1" parent="1" source="rRgYv9nHdEKHLz1z8RmW-6" target="rRgYv9nHdEKHLz1z8RmW-1">
          <mxGeometry width="50" height="50" relative="1" as="geometry">
            <mxPoint x="-170" y="-460" as="sourcePoint" />
            <mxPoint x="-120" y="-510" as="targetPoint" />
          </mxGeometry>
        </mxCell>
      </root>
    </mxGraphModel>
  </diagram>
</mxfile>
